<svg xmlns="http://www.w3.org/2000/svg" width="360" height="280" viewBox="0 0 360 280"><defs><linearGradient id="b" x1="0" y1="0" x2="1" y2="1"><stop stop-color="#4d7899"/><stop offset=".6" stop-color="#3d6281"/><stop offset="1" stop-color="#172b3d"/></linearGradient><linearGradient id="g" x1="0" y1="0" x2="0" y2="1"><stop stop-color="#83bcc9"/><stop offset="1" stop-color="#263942"/></linearGradient></defs><ellipse cx="180" cy="258" rx="118" ry="12" fill="#111417" opacity=".25"/><g stroke="#111417" stroke-linejoin="round"><path d="M60 72Q83 49 112 43H248Q277 49 300 72L294 217H66Z" fill="url(#b)" stroke-width="9"/><rect x="82" y="82" width="196" height="65" rx="6" fill="url(#g)" stroke-width="7"/><path d="M90 94H270" stroke="#aacdd3" stroke-width="5" opacity=".75"/><path d="M71 154H289V204H71Z" fill="#20282d" stroke-width="6"/><circle cx="104" cy="214" r="25" fill="#080b0d" stroke-width="8"/><circle cx="256" cy="214" r="25" fill="#080b0d" stroke-width="8"/><circle cx="104" cy="214" r="11" fill="#899295" stroke-width="5"/><circle cx="256" cy="214" r="11" fill="#899295" stroke-width="5"/><rect x="93" y="170" width="20" height="15" rx="4" fill="#d8433e" stroke-width="3"/><rect x="247" y="170" width="20" height="15" rx="4" fill="#d8433e" stroke-width="3"/><path d="M109 58H251" stroke="#95aab2" stroke-width="6"/></g></svg>