<?xml version="1.0" encoding="UTF-8"?><svg xmlns="http://www.w3.org/2000/svg" width="460" height="520" viewBox="0 0 460 520"><defs><linearGradient id="j" x1="0" y1="0" x2="1" y2="1"><stop stop-color="#b85a46"/><stop offset=".6" stop-color="#a44b34"/><stop offset="1" stop-color="#11181b"/></linearGradient></defs><g stroke="#0b1013" stroke-linecap="round" stroke-linejoin="round"><path d="M170 150Q180 91 228 76Q277 89 289 150L279 199L296 221L283 239L263 210L247 236L231 210L214 238L199 210L182 233L168 211L176 190Z" fill="#111111" stroke-width="7"/><path d="M178 129Q228 96 281 129" fill="none" stroke="#4a3027" stroke-width="9"/><path d="M171 230Q229 207 289 230L333 315L318 453H142L127 315Z" fill="url(#j)" stroke-width="11"/><path d="M145 286L103 335L112 349L166 319M315 286L357 335L348 349L294 319" fill="#a44b34" stroke-width="10"/><path d="M104 337L87 355L99 372L118 356M356 337L373 355L361 372L342 356" fill="#b85a46" stroke-width="7"/><path d="M192 248Q230 267 270 248" fill="none" stroke="#b85a46" stroke-width="8"/><path d="M163 391H297" stroke="#f1ede4" stroke-width="5" opacity=".65"/><path d="M193 446L184 486M268 446L276 486" stroke="#151a1d" stroke-width="17"/><path d="M179 484L193 491M267 491L283 484" stroke="#b85a46" stroke-width="7"/><path d="M205 213L210 237M255 212L250 237" stroke="#8d5d40" stroke-width="11"/><ellipse cx="209" cy="204" rx="12" ry="14" fill="#8d5d40" stroke-width="6"/><ellipse cx="253" cy="204" rx="12" ry="14" fill="#8d5d40" stroke-width="6"/></g></svg>