<?xml version="1.0" encoding="UTF-8"?>
<svg xmlns="http://www.w3.org/2000/svg" width="180" height="250" viewBox="0 0 180 250">
<defs>
  <linearGradient id="s" x1="0" y1="0" x2="1" y2="1"><stop offset="0" stop-color="#b05a20"/><stop offset=".7" stop-color="#ffbf65"/><stop offset="1" stop-color="#101416"/></linearGradient>
  <linearGradient id="h" x1="0" y1="0" x2="1" y2="1"><stop offset="0" stop-color="#ef8b3c"/><stop offset=".7" stop-color="#b05a20"/><stop offset="1" stop-color="#14191c"/></linearGradient>
</defs>
<g stroke="#101416" stroke-width="5" stroke-linejoin="round" stroke-linecap="round">
  <path d="M62 74 L118 74 L137 108 L129 174 L111 194 L69 194 L50 171 L42 108 Z" fill="url(#s)"/>
  <path d="M74 85 L53 110 L30 143" fill="none" stroke="#ffbf65" stroke-width="15"/>
  <path d="M106 85 L127 111 L151 141" fill="none" stroke="#ffbf65" stroke-width="15"/>
  <path d="M54 126 L31 145 L25 160" fill="none" stroke="#242b2f" stroke-width="12"/>
  <path d="M126 126 L149 145 L155 160" fill="none" stroke="#242b2f" stroke-width="12"/>
  <path d="M69 188 L59 220 L47 234" fill="none" stroke="#151a1d" stroke-width="17"/>
  <path d="M111 188 L121 220 L134 234" fill="none" stroke="#151a1d" stroke-width="17"/>
  <path d="M45 233 L63 233" fill="none" stroke="#e9c65f" stroke-width="8"/>
  <path d="M117 233 L135 233" fill="none" stroke="#e9c65f" stroke-width="8"/>
  <circle cx="90" cy="52" r="39" fill="url(#h)"/>
  <path d="M55 51 Q90 20 125 51 L120 70 Q90 81 60 70 Z" fill="#12171a"/>
  <path d="M63 47 Q90 35 117 47" fill="none" stroke="#a9d9e3" stroke-width="8"/>
  <path d="M75 91 L105 91" fill="none" stroke="#f3ead6" stroke-width="5"/>
  <path d="M62 117 L118 117" fill="none" stroke="#f3ead6" stroke-width="4"/>
  <path d="M90 121 L90 168" fill="none" stroke="#101416" stroke-width="4" opacity=".55"/>
</g>
<text x="90" y="248" text-anchor="middle" font-family="Arial,sans-serif" font-size="9" font-weight="900" fill="#f6f0df" letter-spacing="2">TOBI</text>
</svg>